<?xml version="1.0" encoding="UTF-8"?>
<svg id="Layer_2" data-name="Layer 2" xmlns="http://www.w3.org/2000/svg" viewBox="0 0 799.53 478.86">
  <defs>
    <style>
      .cls-1 {
        fill: #ededef;
        stroke-width: 0px;
      }
    </style>
  </defs>
  <g id="Layer_1-2" data-name="Layer 1">
    <g>
      <path class="cls-1" d="M415.96,476.94h0s0,0,0,0Z"/>
      <path class="cls-1" d="M797.15,450.51c-4.47-7.66-12.26-16.6-17.11-17.62,0,0-9.15-2.89-13.57,1.19,0,0-11.74,8-11.74,3.23s5.11-7.32,3.23-17.02-9.02-21.28-12.94-23.83c-3.92-2.55-9.53-7.15-9.53-7.15,0,0-2.89.17-2.04-4.6.85-4.77-5.79-5.45-7.49-2.38s-4.77,7.49-4.77,7.49l-3.92,3.91s-13.28,2.55-17.02.34-3.74-5.62-3.74-5.62c0,0-2.72-3.57-6.13.17-3.4,3.74-8-3.23-8-3.23,0,0-5.28-3.74-5.28,2.89s-9.19,8.34-12.94,2.72c-3.74-5.62-4.43-8-8.85-11.57,0,0-2.55-1.32-2.77-3.02-.21-1.7-.08-3.28-3.83-5.06-3.74-1.79-5.19-8.51-5.19-8.51,0,0-2.55-2-1.19-7.45,1.36-5.45.34-6.55.34-6.55,0,0-.26-1.36,1.62-3.87,1.87-2.51.43-14.6.43-14.6,0,0,.85-8.21-7.87-5.15s-7.79,2.64-7.79,2.64c0,0-4.3,1.06-7.11-1.91-2.81-2.98-29.32-13.57-34.04-14.81,0,0-1.87.81-2.43-3.62-.55-4.43-2.68-12.77-6.89-13.06-4.21-.3-6.04,2.47-6.04,2.47,0,0-2.17,6.13-7.45,9.19,0,0-2.13.51-8.34.34-6.21-.17-13.79,3.87-13.79,3.87,0,0-2.81,2.38-5.96,1.7s-4.43-2.81-9.62,3.74c-5.19,6.55-10.04,6.64-10.04,6.64,0,0-2.13,1.7-2.72-7.06-.6-8.77-21.62-27.23-21.62-27.23l-12.43-3.83s-3.92-.68-1.19-4.85,4.68-11.4,4.68-11.4c0,0-1.19-8.34-8.43-4.77s-8.43,5.7-8.43,5.7c0,0-5.02,3.57-4.85-2.98.17-6.55-6.55-18.47-6.55-18.47l-2.13-3.4s-3.32-3.57,2.72-5.28c6.04-1.7,9.62-2.21,9.7-7.23.09-5.02-13.02-10.64-13.02-10.64,0,0-6.3-3.66-10.13-.09s-4.51-2.89-4.51-2.89c0,0-1.11-5.62-6.04-4.43-4.94,1.19-5.36-2.55-5.36-2.55,0,0-.26-2.47-1.19-3.83s1.87-2.38,1.87-2.38c0,0,2.38-3.66.51-8.26-1.87-4.6,1.7-4.09,1.7-4.09,0,0,3.06-3.32,3.32-6.89.26-3.57,1.79-5.19,1.79-5.19,0,0,1.53-4.26,1.62-6.47.09-2.21,2.55-7.4,2.55-7.4,0,0,1.53-4.94,1.19-5.79-.34-.85,2.47-4,8.34-6.55,5.87-2.55,6.55-3.49,6.55-3.49,0,0,5.19-1.96,3.91,2.04s-4.6,5.28-4.6,5.28c0,0-1.62,2.04,2.3,6.81s10.89,4.51,10.89,4.51c0,0,6.72-.09,8.85-3.4s4.09-3.49,4.94-1.36c.85,2.13,3.66.77,1.62,3.74-2.04,2.98-1.45,9.19,1.02,10.3s10.04,4.94,10.04,4.94c0,0,3.83,1.53,3.74,2.47-.09.94,3.74.51,3.74.51,0,0,3.49,1.53,4,2.64s2.98-.17,2.98-.17c0,0,3.4.51,2.47,2.81-.94,2.3-.51,3.4-.51,4s-1.45,4.09-3.06,6.13-1.96,8,.77,8.94c2.72.94,4.6.09,4.6.09,0,0,1.96-.34,2.3.85.34,1.19,5.11,1.96,5.87,1.62.77-.34,2.13-.6,1.45,2.13-.68,2.72,2.38,5.19,2.38,5.19,0,0,2.13-.16,1.79,3.03s-.17,8.59,7.57,9.33,9.36-7.09,9.36-7.09l.17-6.04s-.77-6.04,4.17-5.36,12.09,1.7,13.36-2.47c1.28-4.17-4.34-10.21-4.34-10.21,0,0-5.36-2.55-4.85-14.47,0,0-.51-3.06,2.89-3.74,3.4-.68,2.64-1.45,2.64-1.45,0,0,1.28-2.04,3.06-.77,1.79,1.28,3.66-2.3,3.66-2.3,0,0,2.72-1.53,4-3.15,1.28-1.62,4.17-2.64,5.45-.17s2.04,3.49,4.51,4.77c2.47,1.28.94.26,4.26,2.38,3.32,2.13,15.32,9.62,17.53.26,0,0-4-6.47-5.7-13.19-1.7-6.72-.26-25.28-.26-25.28l-.09-25.28s-.09-11.91-4.09-21.53c-4-9.62-3.74-9.7-9.28-21.96,0,0-3.32-2.81,1.02-6.55,4.34-3.74,9.11-13.19,5.7-17.96-3.4-4.77-9.53-6.55-13.53-3.15s-5.7,6.89-5.7,6.89c0,0-.43,5.28-4.51,1.02-4.08-4.26-21.79-7.06-21.79-7.06l-9.19-1.11s-4.68.26-1.79-3.83c2.89-4.09,2.13-16.34,2.13-16.34,0,0,.94-8.09-5.87-14.38-6.81-6.3-15.92-2.55-17.96,1.45s-4,7.32-.09,11.66c3.92,4.34,1.36,9.53,1.36,9.53,0,0-5.62,6.38-16.51,10.64-10.89,4.26-11.83,3.66-18.38,7.15,0,0-7.66,5.79-6.55-.77,1.11-6.55-13.96-21.96-13.96-21.96,0,0-3.4-4.77-11.66-3.74-8.26,1.02-3.4-7.06-3.4-7.06,0,0-3.4-14.47-10.98-17.79s-18.64-3.4-23.57-1.11c-4.94,2.3-10.98,8.09-11.32,13.53,0,0-1.87,2.38-1.96,6.3-.09,3.91-2.64,4.68-5.62,3.91-2.98-.77-12.34,0-19.23,10.55-6.89,10.55-4.77,13.45-4.77,13.45,0,0-2.21,4.34-5.87-.51-3.66-4.85-25.45-14.04-25.45-14.04,0,0-13.96-4.26-10.38-10.89,0,0,8.17-7.06,4.77-13.28-3.4-6.21-4.68-9.02-12.68-7.66-8,1.36-11.32,3.57-13.62,16,0,0-.6,3.06,1.11,8.26,1.7,5.19,4.51,9.19-4.17,10.3s-20.94-.51-27.57,4.77c-6.64,5.28-6.81-2.72-6.81-2.72,0,0-1.53-11.4-11.66-8.94-10.13,2.47-10.47,10.55-9.96,16.43.51,5.87,6.38,9.53,6.38,9.53,0,0,7.74,1.79,2.55,6.13-5.19,4.34-9.96,12.43-15.83,24.94-5.87,12.51-4.34,23.91-4.34,23.91l1.62,22.72s3.83,12.77-3.15,21.87c-6.98,9.11-6.81,9.28-6.81,12.34s3.49,3.74,8.17,2.21c4.68-1.53,3.66-.77,3.66-.77,0,0,1.7.68,3.83-.85s5.36-1.79,5.36-1.79c0,0,4.6-1.45,5.19-5.62.6-4.17,3.4-5.53,5.36-2.47,1.96,3.06,5.79,4.51,5.79,4.51l7.23,5.62s2.72.68,3.4,2.72c.68,2.04-1.96,11.23-1.96,11.23-1.54,1.96-3.74,5.27-5.02,9.87-.87,3.11-1.05,5.86-1.02,7.91l4.6,1.79,3.32-1.79,5.11,1.79,3.06,3.06,1.28,4.85-.77,6.21,4.34,4.17s2.55,2.4,2.81,2.6c.26.21,5.7-.9,6.55-1.67s4.68-4.68,4.43-7.23c-.26-2.55.19-6.04.01-6.47-.18-.43,2.8-2.3,2.8-2.3,0,0,3.66.68,4.94.77,1.28.09,3.66-2.13,3.66-2.13,0,0,5.11.51,5.53.51s1.45-2.21,1.7-2.64,1.19-4.09,1.19-4.6-1.79-2.38-2.38-2.81c-.6-.43-2.21-2.89-2.81-3.91-.6-1.02-2.77-8.72-2.77-8.72l-1.15-4.34s.77-1.15,5.11,0c4.34,1.15,13.28-2.68,14.17-2.68h9.96s4.09-3.32,4.21-4.47c.13-1.15-.64-4.34-.77-4.98-.13-.64-1.66-2.17-2.17-2.94-.51-.77-.64-2.81-.64-2.81,0,0,1.79-1.91,2.17-1.91s2.68-1.28,3.96,0c1.28,1.28,6,5.74,7.4,7.02,1.4,1.28,8.04,2.3,9.32,2.04,1.28-.26,3.57-2.81,5.23-3.45,1.66-.64,5.23-4.85,5.62-5.36.38-.51-.64-2.81-1.02-3.57-.38-.77-1.66-2.17-2.17-2.81-.51-.64-1.91-1.66-1.28-3.32.64-1.66,1.15-2.68,2.17-2.68s4.47,2.04,5.36,2.81c.89.77,5.74,3.19,6.13,4.6.38,1.4,2.81,6,4.21,7.66,1.4,1.66,2.3,8.81,2.43,10.6.6,8.35,2.67,12.26,4.34,15.83.39.84,1.4,2.89,1.74,5.79.23,1.94.09,3.55-.06,4.56-.39.68-.88,1.74-1.05,3.1-.28,2.24,1.37,3.37.89,5.45-.19.81-.41.63-.94,1.87-1.29,3.02-.35,4.9-1.36,5.53-.78.48-1.35-.61-3.7-.89-.56.08-1.45.2-2.55.26-1.6.09-1.96-.03-2.55.26-1.09.53-1.58,1.72-1.91,2.55-.71,1.74-.33,2.73-1.13,3.27-.4.27-.98.37-1.81.18-3.32-.77-13.66-.64-13.66-.64l-6.13,2.17-2.81,4.09,2.17,4.98s5.87,2.38,6.26,2.79c.38.4,3.96,2.57,4.34,2.83.38.26,1.66,1.53-2.94,6.26-4.6,4.72-4.72,7.91-4.72,7.91,0,0-3.45,7.79-3.7,8.94-.26,1.15,2.43,13.28-5.87,7.15-8.3-6.13-8.68-6.38-9.32-6.38s-5.49-2.17-6.51,2.3,0,9.57,0,9.57l2.68,5.74s.77,2.81-4.85,4.34c-5.62,1.53-10.6,4.34-10.6,4.34,0,0-3.45,2.55-3.83,2.81-.38.26-9.83,5.11-15.19,16.72s.64,15.96-7.79,10.21c0,0-2.81-5.23-8.3-6.51,0,0-5.11-7.28-10.6-2.04,0,0-2.68,3.06-6.51-2.04-3.83-5.11-24-4.09-24-4.09,0,0-2.94-1.28-4.6-7.66-1.66-6.38-9.32-4.6-9.32-4.21s-4.34,7.66-6.26,12c-1.91,4.34-6.51,5.87-13.91,8.17-7.4,2.3-16.09,7.91-16.47,8.04-.38.13-5.87,5.11-7.28,5.11h-7.79s-6.13-7.66-13.02-1.53c0,0-2.55,1.15-1.4,8.81,1.15,7.66.38,7.28.38,7.28,0,0,1.15,3.57,2.3,4.47,1.15.89-1.91,3.45-1.91,3.45,0,0-.38,1.79,1.28,5.87,1.66,4.09-4.85,8.55-4.85,8.55,0,0-4.85,1.53-6,8.94,0,0-1.53,2.94-5.87,5.36-4.34,2.43-6.64,10.6-6.64,10.6,0,0-3.32,5.74-8.3,0-4.98-5.74-2.43-4.47-7.4-4.34-4.98.13-2.43,1.02-5.74-1.4-3.32-2.43-10.47-4.34-12,2.04-1.53,6.38-12.51,4.47-12.51,4.47,0,0-7.4-2.94-11.49-2.3-4.09.64-4.09-9.57-4.09-9.57,0,0-5.23-4.21-9.06-2.3s-6,8.55-6,8.55c0,0-11.23,11.87-11.23,12.26s-5.49,4.34-7.91,13.66.77,14.68.77,14.68c0,0,.89,3.19-11.49.64-12.38-2.55-28.09,8.04-28.09,8.04,0,0-11.49,8.04-6.64,24s27.45,7.28,27.45,7.28c0,0,2.17.13,10.47,1.4,8.3,1.28,14.3-9.7,14.3-9.7,0,0,3.19-.26,4.47,1.91,1.28,2.17,7.66,1.02,7.66,1.02,0,0,4.21-.13,7.28,1.79,3.06,1.91,8.43-.13,8.43-.13,0,0,7.79-.64,8.04,3.96.26,4.6-1.79.51-1.02,5.36.77,4.85,0,5.23,0,5.23,0,0,11.74,2.17,24.26,0l-.26-6.38s-1.79-5.74,1.91-6.89c3.7-1.15,13.28-5.74,13.66-5.74s3.57-4.34,6.26,0c2.68,4.34,13.79,3.7,15.19,1.66,1.4-2.04,4.21-1.53,4.09.89-.13,2.43,5.74,4.34,5.74,4.34,0,0,5.87-1.15,6.51-5.49.64-4.34,4.34-1.02,4.34-1.02,0,0,9.45,1.15,13.15-3.83,3.7-4.98,6.26-4.85,7.28-1.4,1.02,3.45,3.19,4.98,6.13,5.49s2.43-2.43,5.62,1.15c3.19,3.57,7.79,4.47,7.79,4.47,0,0,3.83-2.3,3.7,3.83-.13,6.13.13,9.9.13,9.9,0,0,14.55,4.03,24.26,0l-1.15-11.94s-1.02-2.3,4.72-1.15,24.77-1.15,24.77-1.15c0,0,5.49-1.28,8.68,2.81,3.19,4.09,11.11-1.91,9.06-5.74s-6.38-8.04-6.38-8.04c0,0-4.98-3.96,2.3-6.64,7.28-2.68,6.26-3.83,11.36-3.83s3.83,5.23,3.83,5.23c0,0-1.91,9.96,7.15,9.7s11.36-7.91,11.36-7.91c0,0,2.68-2.68,6,2.68s21.19,10.85,21.19,10.85c0,0,6.51,3.19,35.11,4.72,0,0,15.57-2.17,15.7,3.32.13,5.49,0,7.91,0,7.91,0,0-2.3,4.21,1.66,4.21h22.59s-.36-.21-1.91-5.11c-1.66-5.23,1.91-11.11,1.91-11.11,0,0,3.96-1.02,9.57.64,5.62,1.66,29.36.89,39.96-3.57s19.66-11.62,19.66-11.62l3.57-2.17s.64,6.89,11.74,8.43c11.11,1.53,9.45-10.09,9.45-10.09,0,0-1.53-6.51,5.36-2.94,6.89,3.57,10.34,4.47,10.34,4.47,0,0,4.85,2.3,0,5.74-4.85,3.45-11.23,8.55-6.13,11.74,5.11,3.19,3.45,2.3,19.66.89,16.21-1.4,24.64,1.53,24.64,1.53,0,0,5.23-2.17,5.36,7.02.13,9.19-1.15,7.28,3.06,7.91,4.21.64,19.79-1.15,19.79-1.15l1.02-9.7s-.89-5.11,6.64-7.4c7.53-2.3,4.47-2.55,9.57-1.4,5.11,1.15,7.02-6.77,7.02-6.77,0,0,2.04-2.04,5.11,4.09,3.06,6.13,10.09,5.74,10.6,5.74s6.13-2.17,6.51.13c.38,2.3,1.28,3.45,10.98,2.55,0,0,3.83-5.74,9.06-1.4,5.23,4.34,14.3-.89,14.3-.89,0,0,1.02-5.87,6.64-1.15,5.62,4.72,15.45,5.23,15.45,5.23,0,0,5.62-2.94,5.74,1.15.13,4.09.89,10.21.89,10.21l23.87.13v-8.3s-3.57-4.98,4.21-5.74c7.79-.77,10.34-2.3,10.34-2.3,0,0,8.68,0,14.17,4.85,5.49,4.85,14.3-1.4,14.3-1.4,0,0,3.19-1.15,6.38,2.04,3.19,3.19,18.26.13,21.19-3.96,2.94-4.09,5.62-5.11,1.15-12.77ZM41.85,438.3c-.47,1.45-1.19,3.87-4.13,2.94s-6.13-2.38-8.85-1.96c-2.72.43-4.98-1.79-3.7-2.89,1.28-1.11,4.04-1.66,4.04-1.66,0,0,2-.34,3.96,1.15,1.96,1.49,6,.77,6,.77,0,0,3.15.21,2.68,1.66ZM77.13,408.05s.26.13-2.43.72c-2.68.6-3.7,2.81-4.38,6.81s1.28,4.94,1.28,4.94c0,0,1.91,1.23,2.3,1.87s-.13,4.38-1.66,5.49c-1.53,1.11-1.38,2.72-1.38,2.72,0,0,.1,1.32-2.07,1.87-2.17.55-4.47-2.68-4.47-2.68l-2.26-3.45s-1.36-3.32-.77-5.62c.6-2.3.51-1.36-.68-4.85-1.19-3.49,0-5.87,0-5.87,0,0,.09-3.49,2.47-4.6,2.38-1.11,2.38-2.38,2.38-2.38,0,0-.77-.26,2.64-2.21s8.17-1.02,8.17-1.02c0,0,4.51.68,5.28,3.83.77,3.15-4.43,4.43-4.43,4.43ZM133.89,424.9s-8.09,7.06-13.62,10.81-11.15,2.81-11.57,1.87c-.43-.94-2.98-2.47-3.57-2.04-.6.43-3.57,0-3.57,0,0,0-1.36-1.79-4.6-1.02-3.23.77-6.98.34-9.96-.68-2.98-1.02-1.11-3.57,0-4.53s.94-2.45,1.45-3.64c.51-1.19,1.36-1.19,2.98-1.96s2.81-1.28,4.68.6,3.91,1.79,3.91,1.79c0,0,.26-.68,3.15,1.62s8.77,1.45,8.77,1.45c6.98-3.49,3.66-3.74,5.11-7.06,1.45-3.32-1.62-4.6-1.62-4.6,0,0-2.47-2.38-4.6-4.84-2.13-2.46-2.25-3.16-2.25-3.16,0,0,.72-.51.13-2.81-.6-2.3,1.11-2.55,1.11-2.55,0,0,3.66-1.02,6.21-2.89,2.55-1.87,3.74,0,3.74,0,0,0,3.57,4.43,6.38,4.43s3.4,1.19,5.45,3.66c2.04,2.47,7.32-1.53,7.32-1.53,0,0,.6-1.7,4.6-3.06,4-1.36,1.28,3.66,1.28,3.66,0,0-1.11-.51-4,5.96s-6.89,10.55-6.89,10.55ZM153.21,428.64c-1.53,2.04-4,4.85-4.34,7.32-.34,2.47-.68,5.28-3.57,5.96s-6.13-.34-4.85-2.89c1.28-2.55,5.11-6.72,5.11-6.72l4.34-6.89.77-2.47s2.04-2.81,2.64-1.19c.6,1.62,1.28,3.57,1.28,3.57,0,0,.17,1.28-1.36,3.32ZM278.83,144.68c-1.28,3.38-1.21,1.21-1.28,3.38-.06,2.17-1.98,1.85-1.98,1.85,0,0-2.23,2.23-3.06,5.43-.83,3.19-2.87,0-2.87,0l-6.77-5.49-4.02-4.72s-1.02-.89.51-3.64-2.04-7.34-2.04-7.34l-2.11-2.04s-.32-1.66,1.21-1.91,1.79-3,1.79-3c0,0-.19-1.34,2.04-1.34s2.62-1.02,2.62-1.02c0,0,5.81-2.17,7.4,1.79,1.6,3.96,4.28,9,4.28,9l2.68,3.38s2.87,2.3,1.6,5.68ZM280.53,96.05l-3.91,4.77s-2.38,4-4.34,2.21c-1.96-1.79-6.38.46-6.38.46,0,0-4.85,3.11-4.6-.89s-4.34-6.47-4.34-6.47c0,0-3.91-5.7-1.45-11.57,2.47-5.87,5.19-10.47,5.19-10.47,0,0,.77-3.23,4.17,0,3.4,3.23,11.15,4.68,12.26-1.36,1.11-6.04-.77-9.79,5.36-13.87l4-3.74,4.85-2.21s2.89-2.04,1.87,1.11c-1.02,3.15-3.25,8.43-3.25,8.43,0,0-3.64,8.43-1.6,14.13,2.04,5.7,3.83,7.57,3.83,7.57,0,0,4.35,3.06,1.24,4.34-3.11,1.28-9.15,1.87-12.9,7.57ZM295.13,133.32c1.06-1.19,1.15-2.51,1.15-2.51,0,0,.72-1.83,3.74-2.47,3.02-.64,2.47,2.77,2.47,2.77,0,0-1.28,2.13-4.09,3.28-2.81,1.15-3.28-1.06-3.28-1.06ZM334.42,136.26c-1.02,3.89-2.62,12.06-5.62,7.91s-9.38-8.81-11.74-4.6c0,0-.57,2.49-.77,7.02-.19,4.53-4.6,9.7-4.6,9.7l-6.13,5.55s-3.13,1.28-1.85-.83c0,0,2.74-.51,3.19-4.02.45-3.51-3.19-6.26-3.19-6.26l-4.09-2.04s-3.19-2.04.26-2.43c3.45-.38,4.15-1.21,4.15-1.21,0,0,8.3-2.04,10.4-9s.7-12.26-3.13-15.96c-3.83-3.7-6.89-5.62-11.3-4.79-4.4.83-7.53,1.72-10.6,2.43,0,0-4.28,4.47-3.83-.51.45-4.98,4.47-13.66,11.23-14.94,6.77-1.28,11.36-4.53,23.68,1.72s14.74,19.85,14.74,19.85c0,0,.19,8.49-.83,12.38ZM387.34,125.75c-.26,2.81-.54,4.35-2.01,2.52-1.48-1.84-3.43-.56-3.43-.56,0,0-3.61-1.4-4.87-3.47-1.26-2.07-6.45-7.34-9.43-5.47-2.98,1.87-3.23-1.11-5.36,4.51,0,0-1.11,2.04-.43,4.34.68,2.3-1.28,4.17-1.28,4.17,0,0,.36.43-2.37,0s-6.14,3.49-6.14,3.49c0,0-3.66,1.53-2.64-2.38,1.02-3.91-1.45-15.15-1.45-15.15,0,0-3.4-9.62-7.23-14.55-3.83-4.94-10.72-10.38-10.72-10.38l-9.62-4.85s-4.68-.94-5.36-3.57-4-4.51-4-4.51l-4.17-4.09s-2.3-1.7,1.36-4.09c3.66-2.38,3.06-2.38,3.06-2.38,0,0,1.79-.09,3.15.34s6.89-3.4,6.89-3.4c0,0,3.49-4.26,7.23-4.51s8.34-.43,8.34-.43c0,0,4.85-.08,7.83,2.13,2.98,2.21,6.89,3.74,6.89,3.74l4.51,2.55,3.4,2.3s2.81,1.7-1.02,1.96c-3.83.26-4.6-1.02-10.47,0-5.87,1.02-4.85,5.36-4.85,5.36l2.3,5.96s2.13,4.43,4.85,6.3c2.72,1.87,6.64,4.09,6.64,4.09l3.55,1.65s2.92.91,2.33,2.69c-.6,1.79,1.36,3.57,1.36,3.57,0,0,1.19.51,1.79,1.36.6.85,1.87,1.36,4.26,1.87,2.38.51,6.59,2.88,6.59,2.88l4.13,3.84,4.17,5.36s2.47,4,2.21,6.81ZM388.47,250.39l2.45.6s3.45,3.06,1.36,5.36c-2.09,2.3-5.66-1.45-5.66-1.45,0,0-1.28-4.21,1.85-4.51ZM369.49,263.85c.22-1.17.6-2.81,1.3-4.74,0,0,1.19-2.89,2.89-.21s2.26,4.68,2.26,4.68c0,0-.09.77.81,1.91s1.15,1.96-1.11,3.79c-2.26,1.83-4.04,4.34-4.04,4.34,0,0-.37.2-.82.08-.63-.17-1.08-.97-1.4-2.8-.54-3.08-.14-5.74.11-7.04ZM177.72,438.68c-3.06,1.7-5.53,0-5.53,0l-3.06-5.45s-1.87-4.12-3.91-6.02-1.79-8.54-1.79-8.54c0,0-.94-5.62,1.11-2.98s3.74,5.53,3.74,5.53l2.55,3.4,3.15,3.91,2.64,4.17s4.17,4.26,1.11,5.96ZM265.13,398.09c-1.74,1.32-3.28,1.02-3.28,1.02,0,0-2.38.51-2.21,3.19s2.64,9.36,2.64,9.36c0,0,.94,7.83.17,9.49-.77,1.66-4.51,10.64-4.51,10.64,0,0-6.38,9.19-10.04,5.23,0,0-4.04-4.17-2.81-7.15,1.23-2.98,2.09-3.11,1.57-5.32-.51-2.21-5.23-4.98-5.23-4.98l-4-3.49s-2.68-2.72-6.3-1.36c-3.62,1.36-3.74,1.11-3.91,4.17-.17,3.06,1.49,3.57,1.49,3.57,0,0,2.64,1.45,1.49,2.94-1.15,1.49-2.3,3.87-5.91,3.79-3.62-.09-6.77.43-6.77.43,0,0-3.32-.17-6,1.02-2.68,1.19-3.02,1.62-3.36-1.11-.34-2.72-1.28-4.64-4.45-4.89s-6.32.72-6.32.72c0,0-7.19.55-9.49-1.96-2.3-2.51-6.21-6.13-6.21-6.13l-4.43-5.57-1.91-2.3s-1.19-3.36,1.02-2.34,3.45,3.23,7.02,1.62c3.57-1.62,3.15-1.87,6.98-2.85,3.83-.98,7.57-2.3,8.94-6.3s2-5.74.38-7.96-4.68-3.28-6.51-1.36c-1.83,1.91-6.3,3.49-9.06,2.26-2.77-1.23-4.34-2.3-4.26-4.94.09-2.64-.3-5.74-1.23-7.45-.94-1.7-1.83-3.87-.72-5.66s.72-3.23-.09-5.02c-.81-1.79-1.02-3.91.3-5.28s1.83-3.62,1.57-4.26.38-.85,1.74-.89,4.04-1.4,4.98-1.96c.94-.55.77-.47,2.85-.64s9.02-3.53,9.02-3.53c0,0,6-3.87,6.77-5.11.77-1.23,1.15-3.79-.72-4.68,0,0-1.32-1.53-2.51-2.94-1.19-1.4.21-3.28,1.74-4.43s3.87-4.26,3.87-4.26l5.62-4.17s3.53-3.23,4.34-.6c.81,2.64,1.91,3.96,1.91,3.96,0,0,2.26,1.62,1.66,3.66-.6,2.04-1.7,4.64-1.91,5.02-.21.38-2.47,6.34-2.47,6.34,0,0-.89,3.4,1.11,6.17,2,2.77,5.87,3.19,5.87,3.19,0,0,4.34-.34,3.23,1.02-1.11,1.36-6.26,2.55-6.68,2.47-.43-.09-6.04.04-7.7-.68-1.66-.72-3.87-1.49-5.91.43-2.04,1.91-3.74,3.83-2.17,7.79,1.57,3.96,4.38,5.74,4.38,5.74,0,0,1.4,2.68,7.19,3.4,5.79.72,8.68,1.79,7.91,3.15-.77,1.36-3.23,5.49-3.23,5.49l-3.23,4.21s-2.65,4.77-2.01,7.57c.64,2.81,5.79,3.91,9.15,2.72,3.36-1.19,6.68-2.3,8.68-.38s2.68,3.28,2.68,3.28c0,0,4.13,3.96,9.4,3.32s6.09-1.62,6.04-4.04-3.79-3.83-3.79-3.83c0,0-5.57-4.68-2.38-8.17,3.19-3.49,4.55-5.11,7.66-4.51,3.11.6,5.96,1.15,8.38,4.98,2.43,3.83,3.15,5.4,3.15,5.4,0,0,2.55,2.38.81,3.7ZM300.15,418.39c-.57,3.51-1.72,4.09-5.62,4.4s-6.13-.06-9.38,1.53c-3.26,1.6-6.64,1.34-4.53-2.81,0,0,.89-.38,1.72-3.38.83-3,1.79-2.74,1.79-2.74,0,0,.13-.13,1.21-2.55,1.09-2.43,2.62-4.02,2.62-4.02,0,0,.64-1.85,1.66-4.4,1.02-2.55,2.43-5.68-.19-7.21s-4.72-1.09-4.72-1.09c0,0-2.55-.38-1.72-2.23.83-1.85,1.53-2.23,1.53-2.23,0,0,3.45-3,6.26,1.53,2.81,4.53,2.49,3.57,2.49,3.57,0,0,.7,1.98.96,2.94.26.96,1.85,1.85,1.85,1.85,0,0,1.34.45,1.28,3.38-.06,2.94,1.66,8.23,1.66,8.23,0,0,1.72,1.72,1.15,5.23ZM307.93,386.47s-5.49-6.64-5.23-8.17c.26-1.53-4.34-3.7-6.13-1.91s-4.34-1.06-4.34-1.06l-4.47-1.99s-4.09-1.17-10.47,1.39c-6.38,2.55-7.28-2.68-7.28-2.68l-6.13-5.9-7.91-5.34s-3.57-1.15-3.7-4.32c-.13-3.18-.38-4.23-1.02-7.55-.64-3.32-7.28-2.55-7.28-2.55,0,0-4.72,1.79-3.96-3.7.77-5.49,7.28-7.02,7.28-7.02l7.4-1.15,5.49-1.79s5.36-1.02,7.15,3.61,8.43.09,8.43.09c8.3-.77,12.38,3.7,12.38,3.7,0,0,3.57,2.43,8.68,8.94s11.23,18.38,11.23,18.38l3.19,12.89,1.4,6.13c-2.17,3.06-4.72,0-4.72,0ZM315.85,334.26c-1.47-3.51-4.72-9.19-1.28-20.87,1.97-3.75,4.16-6.46,5.81-8.23.95-1.02,2.43-2.61,4.72-4.28,3-2.18,5.85-3.4,7.85-4.09,4.36-1.31,8-1.69,10.6-1.79,2.17-.08,5.57-.18,6.02,1.12.2.57-.38,1.11-.66,1.76-.96,2.23-5.04,4.09-4.66,9.77s-3.89,5.94-3.89,5.94c0,0-7.85,3.06-4.66,6.26s5.58,3.83,5.58,3.83c0,0,6.8,2.3,6.48,7.28-.32,4.98.45,8.36-9.96,12.32-10.4,3.96-20.49-5.49-21.96-9ZM328.07,374.6c-1.41,2.04-3.88-.85-3.88-.85,0,0-2.21-2.64-4-14.98,0,0-1.45-2.3,2.3-1.7,3.74.6,8.84.8,8.84.8,0,0,1.8-.55,1.97,2.35s2.21,6.04,2.21,6.04c0,0,1.62,1.7,0,2.98s-2.3,2.21-2.3,2.21c0,0-3.73,1.11-5.14,3.15ZM390.4,374.26c-1.53,1.02-1.7,2.47-5.11-1.36-3.4-3.83-6.89-4.09-8.68-1.36s-.79.09-2.48,4.34c-1.69,4.26-6.03,2.47-6.03,2.47,0,0-5.28.94-10.04,5.11-4.77,4.17-4.85,1.19-8.77,6.81-3.91,5.62-3.83,7.91-3.32,8.77.51.85.77,2.38.85,3.49.09,1.11-.34,2.64,1.19,4.34,1.53,1.7,1.28,3.32,1.28,3.32,0,0-.6,2.47,1.28,3.32s4.34,4.34,4.34,4.34c0,0,5.87,3.06,8.34-3.74,2.47-6.81,4.77-5.79,4.77-5.79,0,0,3.91-1.02,3.15-5.87-.77-4.85,4.6-5.11,4.6-5.11,0,0,4.85-1.02,6.21,1.36,1.36,2.38,2.21,2.72,2.21,2.72,0,0,1.79,1.02.34,3.74-1.45,2.72-1.96,2.04-2.47,6.04-.51,4,1.36,6.72,1.36,6.72l1.45,1.79s2.04,2.64-.26,6.3c-2.3,3.66-8.43,11.83-18.21,13.7s-13.62,4.34-24.6-3.15c-10.98-7.49-11.4-10.13-11.4-10.13,0,0-2.55-6.98-.94-14.04s2.81-9.02,2.81-9.02c0,0,2.47-1.53.94-4.6s-.6-4.77-.6-4.77c0,0,2.13-2.38,1.87-3.49-.26-1.11,7.91-8.26,7.91-8.26l9.87-9.87s4.85-4.94,2.21-13.87c-2.64-8.94-1.11-7.06,1.36-9.79,2.47-2.72,8.68-14.04,5.45-22.38-3.23-8.34-3.06-11.23-3.06-11.23,0,0-1.36-7.32,2.3-8.6l3.66-1.28s3.49-.77,6.3.68c2.81,1.45,4.68,0,2.64,3.15-2.04,3.15-1.61.34-4.04,4.85s-2.26,7.32-1.15,9.02c1.11,1.7,3.06,2.38,7.57,1.53,4.51-.85,7.23-1.28,8.09,3.15.85,4.43,2.38,5.7,2.38,5.7l2.49,4.09s1.68,1.62,1.43,4.09-2.43,2.3-1.43,5.62,1.94,3.4,1.94,3.4c0,0,1.28,1.79.51,3.91-.77,2.13-1.53,4.6-.85,7.83.68,3.23,1.1,5.45,1.1,5.45,0,0,.01,1.79-.76,1.53-.77-.26-.85,1.87,0,1.87s1.53,2.13,0,3.15ZM393.31,296.12c-2.74,1.98-3.89-2.94-3.89-2.94,0,0-.93-3.19-2.2-5.01,0,0-.8-1.5,0-2.55.8-1.05.66-.07.73-1.28,0,0-.35-2.36,1.85-3.57,2.2-1.21,1.95-2.62,2.2-3.45s1.5-3.48,2.68-2.04.77,4.85.77,4.85l-.13,6.77.2,5.3s.54,1.95-2.21,3.93ZM400.53,113.58s-.43,2.64-1.87-2.13c-1.45-4.77-10.98-31.21-10.98-31.21l-6.64-14.24-3.23-7.66s-2.21-6.38,0-8.51c0,0,2.04-5.53,5.62-2.98,3.57,2.55,6.47,3.57,6.47,3.57,0,0,2.72-.68,3.4,3.49s2.55,18.3,2.55,18.3l4.43,26.81.85,12.17-.6,2.38ZM439.17,267.66s1.7-2.51,2.89-5.79c1.19-3.28,2.26-.34,2.26-.34l1.45,3.7s1.23,2.38,1.19,4.98c-.04,2.6-.09,4.17-.55,4.98-.47.81-.38,1.91-.38,1.91,0,0-1.19,1.32-2.34-1.53-1.15-2.85-3.23-3.4-3.23-3.4,0,0-3.11-1.24-1.28-4.51ZM425.93,251.53s1.36-.77,3.28.85c1.91,1.62.68,3.87.68,3.87,0,0-4.51,2.68-6.17,0-1.66-2.68,2.21-4.72,2.21-4.72ZM528.7,144.56s-3.32,2.72-5.53-.43,0-6.38,0-6.38c2.55-.17,4.26.68,5.53,2.04,1.28,1.36,0,4.77,0,4.77ZM569.98,143.79l-3.83,5.28s-3.57,2.47-1.45,6.55c2.13,4.09,2.89,2.21-.77,5.28-3.66,3.06-8.17,4.94-8.17,4.94l-3.06,2.47-2.13,1.87s-3.23,1.62-1.7-.6c1.53-2.21,1.56-5.19-.41-7.06-1.97-1.87-6.74-4.34-3.08-9.83s6.04-10.51,6.04-10.51v-1.28s2.13-2.55,2.13-4.6,1.02-1.96,2.47-1.11c1.45.85,5.11,2.13,7.23,1.62s3.32,1.62,3.32,1.62c0,0,.51,2.21,2.98,2.47s.43,2.89.43,2.89ZM535.25,94.94l3.32-4.51s3.4-6.98,2.55-12.94c-.85-5.96-.43-5.11-4.68-12.09,0,0-2.3-4.34,2.55-1.79,4.85,2.55,8.68,4.6,8.68,4.6l4.09,5.7s2.3,3.23,1.02,6.81c-1.28,3.57.09,6.98,2.47,6.55s8-4.09,9.36-5.87,3.66,2.13,3.66,2.13l3.91,6.98s3.74,12,0,16.94-5.45,1.28-7.66,5.87c-2.21,4.6-4.34,2.55-4.34,2.55,0,0-2.64-1.28-4.34-.17-1.7,1.11-4.6-2.64-4.6-2.64,0,0-3.32-7.83-10.81-11.15-7.49-3.32-5.19-6.98-5.19-6.98ZM529.04,110.17c9.02,3.65,12.81,11.14,13.62,12.85,0,0,.09,7.83,0,11.6-.09,3.77-3.23-1.39-3.23-1.39-.77-1.33-2.97-4.71-7.32-6.72-5.87-2.71-11.33-.93-12.51-.51-1.15.46-3.29,1.48-5.11,3.66-1.92,2.31-2.46,4.67-2.81,6.3-.76,3.56-.25,6.61.26,8.51,4.6,7.83,7.49,9.19,10.72,9.79,3.23.6-.75,4.43-.75,4.43,0,0-5.21,1.02-6.99,4.68-1.79,3.66,2.04,5.62,2.04,5.62-1.02,5.7-6.04,0-6.04,0,0,0-2.04-1.53-2.21-3.74-.17-2.21-.94-3.32-.94-3.32.83,1.79-2.26-3.56-2.13-5.53.17-2.54,2.53-3,2.47-5.45-.03-1.04-.72-2.37-1.7-3.31-2.64-2.55-7.15,1.36-11.23,5.07-1.26,1.14-1.95,2.1-2.85,1.93-1.67-.31-2.27-4.04-2.59-6.14-.52-3.4-.82-8.51.6-15.06.79-3.05,2.7-8.81,7.57-14.38,4.49-5.14,9.43-7.77,12.26-9.02,1.74-.67,9.76-3.53,18.89.17ZM459.68,108.81s5.62.26,7.4-2.89,2.81-3.57,6.98-5.53c3.89-1.83,6.45-5.8,6.77-6.32.01-.02.02-.04.04-.06,0,0-.01.02-.04.06-1.71,2.77,4.03-6.17,4.37-9.63.12-1.18.11-2.37-.59-3.46-.71-1.11-1.8-1.61-2.42-1.83-.77.21-3.72.76-4.9.55-3.74-.68-8.34,0-8.34,0-5.62-1.02.94-3.91.94-3.91,0,0,4.09-2.89,13.96-6.3,9.87-3.4,13.19-1.53,13.19-1.53l10.13,3.83s6.81,4.26,8.26,3.32c1.45-.94,2.55.68,2.55.68,0,0,1.62,3.4,3.23,7.15,1.62,3.74,0,4.51-.68,4.51s-3.4,1.7-3.66,4.34c-.26,2.64-4.34,3.91-4.34,3.91,0,0-5.28.85-13.87,4.85-8.6,4-14.89,14.47-14.89,14.47,0,0-6.98,12.34-7.91,19.91-.94,7.57-4.6,2.81-4.6,2.81,0,0-2.72-2.38-5.7-2.3-2.98.09-2.38-2.89-2.38-2.89,0,0,.09-2.3-1.7-7.32-1.79-5.02-5.7-3.57-5.7-3.57,0,0-.94,1.96-3.06,2.72-2.13.77-2.04.6-3.32,3.23-1.28,2.64-4.26,3.32-4.26,3.32,0,0-1.19-1.11-4.26-.6-3.06.51-.68-6.64-.68-6.64,0,0,1.87-4.43,6.38-9.28s13.11-5.62,13.11-5.62ZM424.36,108.56l1.79-13.7s1.7-5.36,1.28-8.51,1.02-4.43,1.02-4.43c0,0,1.53-1.96,1.53-5.11s1.87-13.19,1.87-13.19l1.45-6.13s-.68-4.34,3.74-5.11,8.51-3.49,8.51-3.49c0,0,2.89-2.89,3.91,0s2.3,4.77,2.3,4.77c0,0,1.79,6.38-1.28,9.19-3.06,2.81-8.85,14.47-8.85,14.47l-6.81,13.02s-4.94,8.51-6.98,16.09-3.15,10.3-3.15,10.3c0,0-1.62,4.85-2.21,2.64-.6-2.21,1.87-10.81,1.87-10.81ZM420.14,298.22c-1.65-2.55,0-4.55,0-4.55,0,0,.64-.68-.38-2.38-1.02-1.7.04-5.32.04-5.32l.34-3.79s-.13-2.17.85-2.21c.98-.04,1.91-.47,2.34-1.32.43-.85,1.02.04,1.66.77.64.72,2.85,2.17,2.85,2.17,0,0,2.04,1.45,1.66,3.19s-.55,1.32-1.02,4.04c-.47,2.72-2.68,5.19-2.68,5.19,0,0-1.15,1.45-1.19,2.81s-2.82,3.96-4.47,1.4ZM476.19,397.9c-2.11,2.23-3.7,1.4-3.32,5.49.38,4.09,1.79,7.79,1.79,7.79,0,0,2.43,7.72.38,13.47-2.04,5.74-12.31,13.6-16.65,15-4.35,1.4-5.75,1.02-8.3,2.43-2.55,1.4-8.36-1.34-8.36-1.34,0,0-5.55-1.34-9.26-4.85s-8.68-9.51-8.68-9.51c0,0-2.81-3.51-.57-5.74,2.23-2.23,3.38-3.64,3.32-6.89s.19-5.55.19-5.55c0,0-1.02-6.26,3.32-7.28,4.34-1.02,7.34-1.02,6.64,2.43-.7,3.45-.57,4.28,2.17,6.26,2.74,1.98,3.77-.51,3.96,3.45l-.26,3s-.83,3.51,1.15,4.79c1.98,1.28,4.47,3.51,10.34-1.79s6.7-3.38,8.49-9.83c1.79-6.45,2.55-9.38-1.15-15.06-3.7-5.68-14.94-10.4-14.94-10.4,0,0-8.81-3.77-10.02-9-1.21-5.23-9-3.19-9-3.19,0,0-5.3,4.09-5.49.26-.19-3.83,1.47-6.7,1.47-6.7,0,0,1.34-5.04-.83-8.11-2.17-3.06.7-4.66.7-4.66,0,0,1.34-2.56.83-6.52-.51-3.95,2.43-5.36,2.43-5.36l4.53-8.94,2.11-4.47s1.21-1.66,5.36-2.55,7.79-2.04,7.28-4.98c-.51-2.94-1.98-4.91-5.62-6.51-3.64-1.6-4.61-3.55-1.53-5.43l1.4-1.28s6.45-2.87,11.49-.51c5.04,2.36,6,2.36,5.23,4.6-.77,2.23-1.6,2.74-1.6,2.74,0,0-3.19,2.55-2.17,6.38,1.02,3.83.89,3.96-.32,5.11-1.21,1.15-3.26,5.94-3.77,10.09s1.47,11.36,4.72,15.45c3.26,4.09,5.11,4.53,3.64,6.89-1.47,2.36-3.83,6.13-2.11,10.66s8.36,12.7,8.36,12.7l9.83,11.04s4.91,4.21,2.81,6.45ZM489.98,360.94c-.55,1.45-3.74,10.34-3.74,10.34,0,0-1.87,4.17-1.62,6.04.26,1.87-1.4,5.19-3.83,2.09s-4.64-6.13-4.64-6.13l-1.36-1.91s-.77-1.7.94-3.49,2.21-4.26,2.04-5.19c-.17-.94.89-2.17,1.57-2.17s1.7-.13,1.7-.13c0,0,3.32-.34,5.66-1.19,2.34-.85,3.83.3,3.28,1.74ZM491.83,339.87c-3.06,2.87-6.51,3.38-6.51,3.38,0,0-2.87,3-10.4,2.49-7.53-.51-8.94-3.89-9.26-11.3-.32-7.4,5.43-9.26,5.43-9.26,0,0,6.13.32,7.09-4.21.96-4.53-4.28-5.94-4.28-5.94,0,0-3.38-.83-1.98-3.51,1.4-2.68.89-7.53-1.72-9.64s-3.18-4.41-.64-4.15c0,0,9,.13,15.83,6.32,6.83,6.19,7.72,5.62,10.15,10.47,2.43,4.85,3.96,7.21,3.7,10.4-.26,3.19-2.17,6.38-2.17,6.38,0,0-2.17,5.68-5.23,8.55ZM527.42,428.68c-2.85-1.53-6-2.81-6-2.81,0,0-5.66-1.49-6.09-1.49s-5.02-.38-5.02-.38c0,0-3.32.43-2.34-2.13.98-2.55,1.87-3.11,1.11-4.6-.77-1.49.21-3.19.64-3.96.43-.77,3.53-7.83,3.53-7.83l2-3.74,1.19-2.26s4.21-3.7,6.3-4.51c2.09-.81,4.09-.98,4.55.38.47,1.36.34,3.15-1.11,3.66s-2.34-.55-3.28.94c-.94,1.49-1.66,2.47-1.66,2.47,0,0-1.15,1.96.13,3.96,1.28,2,3.28,7.45,3.28,7.45l2.47,6.13,1.91,7.28s1.23,2.98-1.62,1.45ZM534.02,378.81c-3.06-1.53-5.36-3.19-11.11-1.02-5.74,2.17-8.68,1.91-9.7.77-1.02-1.15-4.98-1.45-6.38.87s-3.83,6.15-4.21,8.71c-.38,2.55-5.74,5.74-5.36,0s4.34-13.66,4.34-13.66c1.29-3.3,2.99-6.98,5.23-10.85,3.55-6.12,7.44-10.93,10.85-14.55l9.19-7.66s4.34-4.98,7.53-3.96,4.85,1.53,7.4-1.02c2.55-2.55,5.23,0,5.23,0,0,0,2.81,2.68,6.51,2.94s4.98,1.4,4.98,1.4c0,0,1.91-.38,5.74.51,3.83.89,8.68,3.57,6.13,7.4-2.55,3.83-7.28,2.04-7.28,2.04,0,0-4.98-.77-4.6,4.6.16,2.17.23,3.16.26,3.58,0,.01,1.14,2.8-1.79,4.72-2.94,1.91-8.17,4.21-8.17,4.21,0,0-5.36,3.96-7.15,7.02-1.79,3.06-4.6,5.49-7.66,3.96ZM627.76,417.02c-.77,1.62-4.6,5.06-4.6,5.06,0,0-1.62,5.11-7.96,6.34-6.34,1.23-10.17,1.4-10.17,1.4,0,0-5.11.68-5.87,4.04-.77,3.36-4.38,2-4.38,2l-7.91-.85s-5.28-1.11-5.79-2.77c-.51-1.66-.51-3.49,1.02-5.57,1.53-2.09-.64-7.53-4.04-7.74-3.4-.21-4.38-.09-6.47,1.83-2.09,1.91-5.4,2.47-5.4,2.47,0,0-3.06.34-4.34,4.43-1.28,4.09.08,4.68.08,4.68,0,0,1.79,2.94-1.87,5.28-3.66,2.34-6.09,2.51-7.57-1.19-1.49-3.7-3.28-7.15-3.28-7.15l-1.32-6.13s-.55-4.51.81-6.34c1.36-1.83.68-2.38.64-4.55-.04-2.17-.21-4.09-2.68-4.68-2.47-.6-6.68.04-4.98-3.36,1.7-3.4,2.68-6.6,2.68-6.6l2.3-3.26s3.66-4.78,7.02-4.31c3.36.47,5.53,1.3,5.53,1.3,0,0,2.38.99,2.64,2.65.26,1.66.77,3.66-.68,5.79-1.45,2.13-3.19,3.83-3.19,3.83,0,0-3.28,1.62-2.6,4,.68,2.38,3.62,4.34,3.62,4.34,0,0,6.43,2.68,12.55-1.57,6.13-4.26,5.66-4.55,5.66-4.55,0,0,1.02-1.45,4.51-.13,3.49,1.32,8.09,1.79,8.09,1.79,0,0,5.02-.34,5.96-2.72.94-2.38-1.57-5.83-1.57-5.83,0,0-3.49-4.26-3.49-4.43s-4.34-6.21-4.34-6.21c0,0-3.28-4.09.85-4.13s13.19-4.77,13.19-4.77c0,0,4.6-2,6.21-5.45,1.62-3.45,2.94-5.45.94-6.85-2-1.4-1.79-2.98-4.51-1.32-2.72,1.66-6.64,2.72-6.64,2.72,0,0-5.74,1.06-9.23-.77-3.49-1.83-4.81-3.4-4.81-3.4,0,0-2.47-3.79,2.98-3.74s5.36,1.91,8,0c2.64-1.91,1.32-5.66,1.32-5.66,0,0-1.87-2.3-2.13-5.96-.26-3.66-2.55-6.43-2.55-6.43,0,0-1.87-1.45-.13-3.74,1.74-2.3,2-3.52,2-3.52,0,0,.51-4.06-1.83-4.95-2.34-.89-6.51-3.28-6.51-3.28l13.02,4.17s5.45,3.23,7.66,5.49c2.21,2.26,4,3.96,4,3.96,0,0,3.32,2.47,1.32,3.62-2,1.15-2.81.09-3.4,2.38-.6,2.3,1.96,6.94,1.96,6.94l5.06,5.28,4.21,2.09,2.72.13s2.21.13,3.11,1.87.72,1.49,2.3,1.62,2.04-.13,3.15,2.17c1.11,2.3,2.26,4.55,2.26,4.55,0,0,1.06,1.96-.98,3.91s-.85,4.3-.85,4.3c0,0,2.38,1.96.94,3.74-1.45,1.79-2.3,3.57-3.49,7.06-1.19,3.49-1.45,6.17-1.57,6.51-.13.34-.64,2.68-4.6,3.66-3.96.98-5.57-2.17-5.57-2.17,0,0-3.74-1.57-5.28.64s-2.38,3.02-1.32,6.89c1.06,3.87,2.85,5.45,2.85,5.45,0,0,.77,1.7,2.13,2.21s3.57,1.32,3.96,2.89c.38,1.57,0,1.49.38,1.74s2.04,1.28,5.91-.38c3.87-1.66,5.15-2.38,4.38-.77ZM642.28,421.87c-.64.85-.09,1.87,0,5.28.08,3.4-2.09,6.34-2.09,6.34,0,0-.17.81-1.91,2.3-1.74,1.49-2.43,3.52-2.43,3.52,0,0-1.19,3.55-2.68,4.65-1.49,1.11-3.91.17-4.51-1.53-.6-1.7.98-3.87.98-3.87l2.51-3.57,2.64-3.11,2-4.51s1.79-2.77,2.55-3.23c.77-.47,1.45-1.57,1.23-2.55-.21-.98.26-1.83.85-1.83s1.49,1.28.85,2.13ZM663.85,449.83c-1.92-.04-2.98-.21-3.7-2.64s-3.79-9.11-3.79-9.11l-2.04-3.28s-1.7-.81-1.02-4c0,0,2.17-.68,3.19,1.49,1.02,2.17,2.3,4.3,2.3,4.3,0,0,1.66,2.51,1.74,2.72s2.13,3.7,2.13,3.7l2.17,3.53s.94,3.32-.98,3.28ZM714.72,444.44c-3.83.31-5.49,1.07-5.49,1.07,0,0-5.68,2.81-7.4.83-1.72-1.98-7.72-1.15-7.72-1.15,0,0-6.7.96-11.74-3.38-5.04-4.34-8.81-8.36-9-8.68-.19-.32-6-8.74-6-8.74l-5.94-11.49s.19-2.43,1.98-1.21,3.96,2.3,4.15,2.3,4.47,2.55,4.47,2.55c0,0,3,1,5.17-2.6,2.17-3.6,3.38-3.79,3.38-3.79,0,0,4.15-1.66,4.53-2.43.38-.77,2.04-.89,2.62,0s3.96,3.32,5.3,3.7c1.34.38,5.68,1.79,4.85,4.09-.83,2.3-1.72,4.21-2.17,6-.45,1.79-3,4.53-4.53,5.04-1.53.51-5.11,2.23-3.89,4.79,1.21,2.55,4.34,3.13,4.34,3.13l3.96.32s1.53,1.21,3.57,0c2.04-1.21,5.11-.64,5.11-.64,0,0,2.74-.76,3.83-3.44,1.09-2.69,3.13-.26,3.13-.26,0,0,.19,1.85,1.72,1.91,1.53.06,1.66,2.11,1.66,2.11l1.53,5.17s2.43,4.49-1.4,4.8ZM742.61,434.17c-2.21,3.36-3.79,6.64-3.79,6.64,0,0-2.81,3.11-4.04-.21-1.23-3.32-1.15-5.32-2.89-7.62-1.74-2.3.81-3.57.81-3.57,0,0,.47-.43.3-2.09-.17-1.66.3-3.02.3-3.02,0,0-.43-3.02-3.83-2.89-3.4.13-5.28-2.77-5.28-2.77,0,0-1.4-3.28-.47-5.62,0,0-.13-1.49,2.09-1.87,2.21-.38,3.06-1.66,3.06-1.66,0,0,2.3-1.32,4.89.26s5.49,3.49,5.49,3.49l2.51,2.98s1.23.47,1.66,4.43,1.4,10.17-.81,13.53ZM776.1,448.43c-2.55,1.19-4.04,1.19-6.34,3.32-2.3,2.13-5.91,2.98-7.74.77s-2.64-2.34-2.64-2.34l3.32-3.53s3.02-2,5.36-2.43c2.34-.43,4.21-.89,5.66,0s2.38,1.87,2.38,1.87c0,0,2.55,1.15,0,2.34Z"/>
    </g>
  </g>
</svg>